# xmcd
#
# Track frame offsets:
#	150
#	14618
#	28962
#	38720
#	60752
#	82568
#	104249
#	121578
#	138341
#	154532
#	169256
#	183592
#	197315
#	208405
#	218163
#	239979
#	261660
#	278423
#	294614
#
# Disc length: 4119 seconds
#
# Revision: 1
# Processed by: cddbd v1.5.2PL0 Copyright (c) Steve Scherf et al.
# Submitted via: audiograbber 1.83.01
#
DISCID=17101513
DTITLE=A LAS MADRES - VARIOS
DYEAR=1900
DGENRE=
TTITLE0=SENORA SENORA
TTITLE1=MAMA
TTITLE2=SONETO A MAMA
TTITLE3=QUE ALEGRE VA MARIA
TTITLE4=TE AMO MAMA
TTITLE5=ALGO SE ME FUE CONTIGO
TTITLE6=MADRECITA
TTITLE7=MADRE
TTITLE8=PARA UNA MADRE SOLTERA
TTITLE9=MI MADRE
TTITLE10=A LA MADRE
TTITLE11=A MI MADRE
TTITLE12=MADRE2
TTITLE13=BORRAR
TTITLE14=BORRAR
TTITLE15=BORRAR
TTITLE16=BORRAR
TTITLE17=BORRAR
TTITLE18=BORRAR
EXTD=
EXTT0=
EXTT1=
EXTT2=
EXTT3=
EXTT4=
EXTT5=
EXTT6=
EXTT7=
EXTT8=
EXTT9=
EXTT10=
EXTT11=
EXTT12=
EXTT13=
EXTT14=
EXTT15=
EXTT16=
EXTT17=
EXTT18=
PLAYORDER=
